<svg id="Layer_1" data-name="Layer 1" xmlns="http://www.w3.org/2000/svg" viewBox="0 0 85.47 79.04"><defs><style>.cls-1{fill:#1d1d1b;}.cls-2{fill:none;}</style></defs><path class="cls-1" d="M147.68,328.5a3,3,0,0,0-1,.49c-.56.37-1.13.79-1.66,1.2-1.55,1.21-3,2.53-4.45,3.89a53,53,0,0,1-2.12,5.86,18.9,18.9,0,0,1-3.28,5.58c-1,1-2.34,2-3.81,1.7-2.65-.45.37-4.26,1-5.17a68.11,68.11,0,0,1,7.4-8.08c.64-2.11,1.21-4.27,1.7-6.42.08-.26.76-.11.68.15-.38,1.78-.83,3.55-1.32,5.29a47,47,0,0,1,4.15-3.55,5.23,5.23,0,0,1,2.53-1.36C147.9,328.08,148.13,328.5,147.68,328.5Zm-8.27,6.72a56.89,56.89,0,0,0-6.72,7.51,8.89,8.89,0,0,0-1.74,3.21c-.19,1,.53,1.06,1.36.83,1.62-.45,2.79-2.08,3.62-3.44a32.48,32.48,0,0,0,2.8-6C139,336.61,139.18,335.9,139.41,335.22Zm2.45-9.18a.5.5,0,0,1,.49-.49.5.5,0,0,1,.49.49.49.49,0,0,1-.49.49A.5.5,0,0,1,141.86,326Z" transform="translate(-125.67 -296.97)"/><path class="cls-1" d="M156.51,328.27c.15-.19.83,0,.65.23a8.81,8.81,0,0,1-2.27,1.77c-1,.53-2.53,1.1-3.59.49-.86-.49-.75-1.58-.41-2.57l-.57.57a12.58,12.58,0,0,1-2.79,2.3c-.83.42-1.4-.07-1.36-.94a6.28,6.28,0,0,1,1.32-3.55c.19-.19.83,0,.64.23a6,6,0,0,0-1.17,3,3.92,3.92,0,0,0-.07.68c0,.11,0,.23,0,.34s0,0,0,0a3.11,3.11,0,0,0,.94-.57,36.48,36.48,0,0,0,3.81-3.55c.15-.15.8,0,.64.23-.41.79-1.32,2.6-.64,3.47.38.46,1.25.19,1.7,0a7.05,7.05,0,0,0,1.7-.83,8.94,8.94,0,0,0,1.55-1.32Z" transform="translate(-125.67 -296.97)"/><path class="cls-1" d="M167.92,328c.15-.12.79.11.57.3a15.35,15.35,0,0,1-3.89,2.23c-.72.26-2.83.9-3.21-.27-.3-.94.6-1.92.6-2.87,0-.75-.87-.37-1.32-.18a11.2,11.2,0,0,0-2.15,1.17c-.64.41-1.25.86-1.85,1.32-.27.18-.49.45-.76.6-.11,0-.75,0-.64-.19a8.22,8.22,0,0,0,1.13-2.6c0-.23.72-.12.68.11a3.29,3.29,0,0,1-.53,1.43,21.17,21.17,0,0,1,1.86-1.28c1-.56,2.49-1.47,3.7-1.06,1,.38.41,1.63.18,2.34-.11.38-.41,1.1-.18,1.48.37.56,2-.19,2.49-.38a14.87,14.87,0,0,0,3.32-2Z" transform="translate(-125.67 -296.97)"/><path class="cls-1" d="M177.55,328.27c.23,0,.76.34.3.34a2.93,2.93,0,0,0-1.13.49,22.75,22.75,0,0,0-2,1.47c-1.51,1.25-2.95,2.57-4.34,3.93l-.57,1.7a45.92,45.92,0,0,1-2.94,6.76c-.87,1.54-2,3.32-3.59,4.15-.76.38-2.46.72-2.91-.3s.57-2.31,1-3a52.09,52.09,0,0,1,8.31-9.44l.11-.23c.6-1.89,1.17-3.81,1.66-5.74.12-.41.19-.83.3-1.24-.49.64-1,1.28-1.51,1.88-.64.76-1.7,2.27-2.83,2.23-1.32,0-.64-1.66-.34-2.38a15.42,15.42,0,0,1,1-2,2.94,2.94,0,0,1,.87-1.13c1-.68,1.63.41,1.63,1.32,0,.23-.68.15-.68-.11a1.83,1.83,0,0,0,0-.46,3.38,3.38,0,0,1-.11-.34s-.08-.15-.12-.18,0,0,0,0c-.37,0-.75.79-.9,1a10.1,10.1,0,0,0-1.36,3.1,2.73,2.73,0,0,0,0,.57.24.24,0,0,0,.07.15h0a7.93,7.93,0,0,0,1.1-.83,29.44,29.44,0,0,0,2.38-2.83l.79-1.14c.11-.15.23-.41.38-.49a.62.62,0,0,1,.56,0c.12.07.08.11.08.22a4.67,4.67,0,0,1-.27,1.25c-.18.79-.37,1.59-.6,2.38-.34,1.25-.72,2.49-1.1,3.74a50.2,50.2,0,0,1,4-3.44c.71-.56,1.81-1.58,2.79-1.62Zm-10.23,12.31c.76-1.63,1.4-3.32,2-5a47.57,47.57,0,0,0-7.4,8.64c-.34.53-1.32,2-.75,2.65.26.3.79.18,1.09.07a4.11,4.11,0,0,0,1.74-1.13,17.77,17.77,0,0,0,3.25-5.17Z" transform="translate(-125.67 -296.97)"/><path class="cls-1" d="M187.34,328.27c.22,0,.75.34.3.34a2.93,2.93,0,0,0-1.13.49,22.89,22.89,0,0,0-2,1.47c-1.51,1.25-2.94,2.57-4.34,3.93l-.57,1.7a44.88,44.88,0,0,1-2.94,6.76c-.87,1.54-2,3.32-3.59,4.15-.75.38-2.45.72-2.91-.3s.57-2.31,1-3a51.66,51.66,0,0,1,8.3-9.44,2.4,2.4,0,0,0,.11-.23c.61-1.89,1.18-3.81,1.67-5.74.11-.41.19-.83.3-1.24-.49.64-1,1.28-1.51,1.88-.64.76-1.7,2.27-2.83,2.23-1.33,0-.65-1.66-.34-2.38a13.21,13.21,0,0,1,1-2,2.76,2.76,0,0,1,.87-1.13c1-.68,1.62.41,1.62,1.32,0,.23-.68.15-.68-.11a1.83,1.83,0,0,0,0-.46c0-.11-.07-.22-.11-.34s-.08-.15-.11-.18,0,0,0,0c-.38,0-.76.79-.91,1a10.35,10.35,0,0,0-1.36,3.1,2.73,2.73,0,0,0,0,.57.2.2,0,0,0,.08.15h0a8.48,8.48,0,0,0,1.09-.83,29.44,29.44,0,0,0,2.38-2.83l.79-1.14c.12-.15.23-.41.38-.49a.64.64,0,0,1,.57,0c.11.07.07.11.07.22a5.06,5.06,0,0,1-.26,1.25c-.19.79-.38,1.59-.61,2.38-.34,1.25-.71,2.49-1.09,3.74a48.37,48.37,0,0,1,4-3.44c.72-.56,1.81-1.58,2.79-1.62ZM177.1,340.58c.76-1.63,1.4-3.32,2-5a46.8,46.8,0,0,0-7.4,8.64c-.34.53-1.33,2-.76,2.65.27.3.79.18,1.1.07a4.07,4.07,0,0,0,1.73-1.13,17.56,17.56,0,0,0,3.25-5.17Z" transform="translate(-125.67 -296.97)"/><path class="cls-1" d="M191.72,329.14a10.59,10.59,0,0,1,3.25-.68,1.71,1.71,0,0,0,0,.45,3.94,3.94,0,0,0-.68.08,19.76,19.76,0,0,0-2.08.52,1.91,1.91,0,0,1-1,.16c-.3-.12-.3-.31-.22-.57s.15-.38.19-.57v-.15c-.19.12-.42.23-.57.34l-1.13.79c-.79.57-1.55,1.14-2.34,1.67-.31.22-1,.75-1.4.37s.38-1.51.57-1.85a9.81,9.81,0,0,1,1.51-2.45c.19-.19.87,0,.68.26a11.55,11.55,0,0,0-1.63,2.61c-.11.23-.22.45-.34.72V331c1.4-.91,2.65-2.08,4.12-2.87.34-.19,1-.42,1.21.07.15.31,0,.68-.12.95v.11h.08Z" transform="translate(-125.67 -296.97)"/><path class="cls-1" d="M200.18,328.19c.19-.15.83.08.68.23a11.54,11.54,0,0,1-4.34,2.53c-.64.15-1.74.3-2.15-.38s.19-1.89.45-2.56c.08-.23.76-.08.68.11a4.48,4.48,0,0,0-.6,2.15c.15,1,1.85.15,2.37-.11a15.33,15.33,0,0,0,2.95-2Zm-4.94-1.54a.5.5,0,0,1,.49-.5.5.5,0,0,1,0,1A.5.5,0,0,1,195.24,326.65Z" transform="translate(-125.67 -296.97)"/><path class="cls-1" d="M205.81,328.19c.19-.15.83.08.68.23a11.7,11.7,0,0,1-4.34,2.53c-.64.15-1.74.3-2.15-.38s.19-1.89.45-2.56c.08-.23.75-.08.68.11a4.48,4.48,0,0,0-.6,2.15c.15,1,1.85.15,2.37-.11a15.33,15.33,0,0,0,2.95-2Zm-4.94-1.54a.5.5,0,0,1,.49-.5.5.5,0,0,1,0,1A.5.5,0,0,1,200.87,326.65Z" transform="translate(-125.67 -296.97)"/><rect class="cls-2" width="85.47" height="79.04"/></svg>