<svg id="Layer_1" data-name="Layer 1" xmlns="http://www.w3.org/2000/svg" viewBox="0 0 496.44 219.26"><defs><style>.cls-1{fill:#1d1d1b;}.cls-2{fill:none;}</style></defs><path class="cls-1" d="M-347.13,314.37a30.4,30.4,0,0,0-8.86,1.48,131.51,131.51,0,0,1-9.86,28.2c-2.58,5.18-5.78,10.47-10.34,14.16-3.2,2.59-7.88,4.81-12.07,3.82s-4.43-5.17-3.94-8.62c.74-5.91,3.57-11.57,6.65-16.5,6.28-10.1,15.64-18.59,26.85-22.17,1.47-6,2.71-12.19,3.69-18.34.74-4.93,1.36-10,1.73-15,0-.86.24-2.58.24-4.19A98.29,98.29,0,0,1-366,291c-2.71,2.34-5.54,4.55-9.36,4.18-2.95-.37-6.65-2-7.26-5.29-.13-.86,2.34-.62,2.46.12a5.36,5.36,0,0,0,7,3.7c3.2-1.36,5.91-4.19,8.37-6.65A126.37,126.37,0,0,0-353.41,274c.49-.61,2-.24,2.34.25.62.74.49,2.09.49,2.95,0,2.1-.12,4.19-.24,6.16a171.52,171.52,0,0,1-2.71,19.46c-.74,3.69-1.48,7.39-2.34,11.08a34,34,0,0,1,7.88-1c1.23,0,2.22,1.23.49,1.23Zm-17.48,20.94a162.09,162.09,0,0,0,5.78-18.6c-11.57,4.31-20.93,14.41-26.47,25.13-2.34,4.43-4.56,9.73-4.44,14.77,0,1.36.25,3.21,1.36,4.07s3.45.12,4.8-.25c4.43-1.48,7.88-5.17,10.59-8.86a76.54,76.54,0,0,0,8.38-16.38Z" transform="translate(545.6 -221.88)"/><path class="cls-1" d="M-321.52,326.69c.49-.62,2.71.12,2.1.74a28.09,28.09,0,0,1-7.39,5.79c-3.2,1.72-8.25,3.57-11.7,1.6-2.84-1.6-2.47-5.17-1.36-8.38l-1.84,1.85c-2.71,2.59-5.67,5.79-9.12,7.51-2.71,1.36-4.55-.24-4.43-3.08.25-3.69,1.72-8.86,4.31-11.57.62-.62,2.71.12,2.09.74-2.21,2.46-3.32,6.52-3.81,9.73a12.68,12.68,0,0,0-.25,2.21c0,.37.12.74.12,1.11a.12.12,0,0,1-.12.12c1-.12,2.34-1.35,3.08-1.84a124.61,124.61,0,0,0,12.44-11.58c.49-.49,2.58-.12,2.09.74-1.36,2.59-4.31,8.5-2.09,11.33,1.23,1.48,4.06.61,5.54.12a22.79,22.79,0,0,0,5.54-2.71,28.26,28.26,0,0,0,5.05-4.31Z" transform="translate(545.6 -221.88)"/><path class="cls-1" d="M-284.33,325.7c.49-.37,2.58.37,1.85,1A50,50,0,0,1-295.17,334c-2.34.86-9.24,3-10.47-.87-1-3.08,2-6.28,2-9.36,0-2.46-2.83-1.23-4.31-.61a38.54,38.54,0,0,0-7,3.82c-2.09,1.35-4.06,2.83-6,4.31-.86.61-1.6,1.47-2.46,2-.37.12-2.47,0-2.1-.62,1.24-2.71,3.45-5.42,3.7-8.5.12-.74,2.34-.37,2.21.37a11.39,11.39,0,0,1-1.72,4.68,64.39,64.39,0,0,1,6-4.18c3.2-1.85,8.12-4.81,12.06-3.45,3.33,1.23,1.36,5.29.62,7.63-.37,1.23-1.36,3.57-.62,4.81,1.23,1.84,6.65-.62,8.13-1.24a48.15,48.15,0,0,0,10.84-6.4Z" transform="translate(545.6 -221.88)"/><path class="cls-1" d="M-252.93,326.69c.74,0,2.46,1.11,1,1.11-1.11,0-2.58,1-3.69,1.6-2.22,1.48-4.31,3.08-6.41,4.8-4.92,4.06-9.6,8.38-14.16,12.81-.61,1.85-1.23,3.69-1.85,5.54a145.82,145.82,0,0,1-9.6,22c-2.83,5.05-6.4,10.84-11.7,13.55-2.46,1.23-8,2.34-9.48-1-1.36-3.07,1.85-7.51,3.32-9.85,7.27-11.45,17.24-21.43,27.09-30.78l.37-.74c2-6.16,3.82-12.44,5.42-18.72.37-1.36.62-2.71,1-4.07-1.6,2.1-3.2,4.19-4.93,6.16-2.09,2.47-5.54,7.39-9.23,7.27-4.31-.12-2.1-5.42-1.11-7.76a45.85,45.85,0,0,1,3.2-6.53,9.36,9.36,0,0,1,2.83-3.69c3.33-2.22,5.3,1.35,5.3,4.31,0,.74-2.22.49-2.22-.37a6.17,6.17,0,0,0-.12-1.48c-.13-.37-.25-.74-.37-1.11-.13-.12-.25-.49-.37-.61-.37-.25.12,0,0,0-1.23.12-2.46,2.58-3,3.45a33.73,33.73,0,0,0-4.43,10.09,9.64,9.64,0,0,0-.12,1.85.63.63,0,0,0,.24.49h.13a24.7,24.7,0,0,0,3.57-2.71,94.46,94.46,0,0,0,7.76-9.23l2.58-3.7c.37-.49.74-1.35,1.23-1.6a2,2,0,0,1,1.85.13c.37.24.25.37.25.74.12,1.23-.62,2.83-.86,4.06-.62,2.58-1.24,5.17-2,7.76-1.1,4.06-2.34,8.12-3.57,12.19a161.25,161.25,0,0,1,13.06-11.21c2.34-1.84,5.91-5.17,9.11-5.29Zm-33.38,40.15c2.47-5.3,4.56-10.84,6.53-16.38-8.74,8.62-17.73,17.73-24.14,28.2-1.1,1.72-4.31,6.52-2.46,8.62.86,1,2.59.61,3.57.24a13.28,13.28,0,0,0,5.67-3.69c4.68-4.68,7.88-11,10.59-16.87Z" transform="translate(545.6 -221.88)"/><path class="cls-1" d="M-221,326.69c.74,0,2.46,1.11,1,1.11-1.11,0-2.58,1-3.69,1.6-2.22,1.48-4.31,3.08-6.41,4.8-4.92,4.06-9.6,8.38-14.16,12.81-.61,1.85-1.23,3.69-1.84,5.54a145.87,145.87,0,0,1-9.61,22c-2.83,5.05-6.4,10.84-11.7,13.55-2.46,1.23-8,2.34-9.48-1-1.36-3.07,1.85-7.51,3.32-9.85,7.27-11.45,17.24-21.43,27.1-30.78.12-.25.24-.5.37-.74,2-6.16,3.81-12.44,5.41-18.72.37-1.36.62-2.71,1-4.07-1.6,2.1-3.2,4.19-4.93,6.16-2.09,2.47-5.54,7.39-9.23,7.27-4.31-.12-2.1-5.42-1.11-7.76a45.85,45.85,0,0,1,3.2-6.53,9.36,9.36,0,0,1,2.83-3.69c3.33-2.22,5.3,1.35,5.3,4.31,0,.74-2.22.49-2.22-.37a6.17,6.17,0,0,0-.12-1.48l-.37-1.11c-.12-.12-.25-.49-.37-.61-.37-.25.12,0,0,0-1.23.12-2.46,2.58-3,3.45a33.73,33.73,0,0,0-4.43,10.09,9.64,9.64,0,0,0-.12,1.85.63.63,0,0,0,.24.49h.13a24.7,24.7,0,0,0,3.57-2.71,94.46,94.46,0,0,0,7.76-9.23l2.58-3.7c.37-.49.74-1.35,1.23-1.6a2,2,0,0,1,1.85.13c.37.24.25.37.25.74.12,1.23-.62,2.83-.86,4.06-.62,2.58-1.24,5.17-2,7.76-1.1,4.06-2.34,8.12-3.57,12.19A161.25,161.25,0,0,1-230,331.49c2.34-1.84,5.91-5.17,9.11-5.29Zm-33.38,40.15c2.47-5.3,4.56-10.84,6.53-16.38-8.74,8.62-17.73,17.73-24.14,28.2-1.1,1.72-4.31,6.52-2.46,8.62.86,1,2.59.61,3.57.24a13.28,13.28,0,0,0,5.67-3.69c4.68-4.68,7.88-11,10.59-16.87Z" transform="translate(545.6 -221.88)"/><path class="cls-1" d="M-204.67,326.44c.62-.49,2.71.25,2.22.74-4.07,3.45-9,6.9-14.17,8.25-2.09.5-5.66,1-7-1.23s.61-6.16,1.47-8.37c.25-.74,2.47-.25,2.22.37-.86,2.09-2.34,4.8-2,7,.49,3.2,6,.49,7.76-.37a49.9,49.9,0,0,0,9.6-6.41Zm-16.13-5.05a1.63,1.63,0,0,1,1.6-1.6,1.63,1.63,0,0,1,1.6,1.6,1.62,1.62,0,0,1-1.6,1.6A1.62,1.62,0,0,1-220.8,321.39Z" transform="translate(545.6 -221.88)"/><rect class="cls-2" width="496.44" height="219.26"/></svg>